<?xml version="1.0" encoding="UTF-8" standalone="no"?>
<svg xmlns="http://www.w3.org/2000/svg" xmlns:xlink="http://www.w3.org/1999/xlink" xmlns:serif="http://www.serif.com/" width="100%" height="100%" viewBox="0 0 142 142" version="1.1" xml:space="preserve" style="fill-rule:evenodd;clip-rule:evenodd;stroke-linejoin:round;stroke-miterlimit:2;">
  <g opacity="0.15">
    <path d="M100.926,71.057c0.044,-16.515 -13.456,-30.105 -29.922,-30.118c-16.447,-0.014 -29.987,13.435 -30.05,29.847c-0.064,16.602 13.414,30.165 29.999,30.192c16.395,0.026 29.929,-13.485 29.973,-29.921m-29.977,34.242c-18.973,0.031 -34.374,-15.349 -34.379,-34.334c-0.005,-18.981 15.39,-34.369 34.365,-34.348c19.039,0.021 34.348,15.323 34.352,34.334c0.004,19.012 -15.296,34.317 -34.338,34.348" style="fill:#fff;fill-rule:nonzero;"></path>
    <path d="M36.549,132.987c-0.729,-0.535 -1.619,-0.857 -1.837,-1.433c-0.267,-0.709 -0.232,-1.766 0.122,-2.435c1.495,-2.833 3.156,-5.579 4.759,-8.354c2.041,-3.531 4.075,-7.066 6.13,-10.588c0.847,-1.451 2.111,-1.87 3.271,-1.077c1.102,0.752 1.315,1.84 0.684,2.944c-3.736,6.534 -7.5,13.052 -11.314,19.541c-0.323,0.55 -1.076,0.848 -1.815,1.402" style="fill:#fff;fill-rule:nonzero;"></path>
    <path d="M33.121,94.466c-0.248,0.307 -0.616,1.119 -1.244,1.488c-6.361,3.744 -12.758,7.427 -19.161,11.099c-1.366,0.784 -2.614,0.453 -3.274,-0.739c-0.625,-1.129 -0.255,-2.273 1.078,-3.046c6.344,-3.681 12.692,-7.355 19.058,-10.998c1.723,-0.986 3.5,-0.091 3.543,2.196" style="fill:#fff;fill-rule:nonzero;"></path>
    <path d="M50.295,31.358c-0.607,0.55 -1.147,1.324 -1.884,1.638c-1.084,0.464 -1.979,-0.157 -2.547,-1.133c-1.639,-2.817 -3.253,-5.649 -4.882,-8.471c-2.019,-3.497 -4.048,-6.988 -6.063,-10.487c-0.826,-1.434 -0.572,-2.776 0.619,-3.422c1.137,-0.618 2.342,-0.181 3.15,1.21c3.616,6.227 7.22,12.46 10.812,18.701c0.283,0.493 0.435,1.061 0.795,1.964" style="fill:#fff;fill-rule:nonzero;"></path>
    <path d="M73.156,13.509c0.002,3.601 0.008,7.202 -0.001,10.803c-0.004,1.661 -0.89,2.703 -2.228,2.665c-1.313,-0.036 -2.128,-0.995 -2.131,-2.624c-0.013,-7.251 -0.012,-14.502 0.002,-21.753c0.003,-1.569 0.891,-2.592 2.158,-2.6c1.312,-0.009 2.19,1.053 2.195,2.706c0.011,3.601 0.003,7.202 0.005,10.803" style="fill:#fff;fill-rule:nonzero;"></path>
    <path d="M33.139,47.345c-0.011,2.372 -1.836,3.228 -3.643,2.192c-4.128,-2.366 -8.237,-4.765 -12.356,-7.146c-2.144,-1.238 -4.299,-2.458 -6.439,-3.702c-1.428,-0.831 -1.855,-1.95 -1.229,-3.123c0.649,-1.217 1.975,-1.517 3.399,-0.696c6.267,3.612 12.535,7.223 18.765,10.897c0.71,0.418 1.185,1.234 1.503,1.578" style="fill:#fff;fill-rule:nonzero;"></path>
    <path d="M73.118,128.507c-0.002,3.553 0.007,7.106 -0.006,10.66c-0.005,1.658 -0.872,2.726 -2.172,2.743c-1.318,0.017 -2.181,-1.024 -2.183,-2.697c-0.009,-7.155 -0.009,-14.31 -0.003,-21.465c0.001,-1.846 0.816,-2.862 2.208,-2.809c1.387,0.054 2.153,1.075 2.156,2.909c0.006,3.553 0.002,7.106 -0,10.659" style="fill:#fff;fill-rule:nonzero;"></path>
    <path d="M107.776,11.164c-0.401,0.905 -0.605,1.506 -0.916,2.046c-3.485,6.062 -6.953,12.134 -10.522,18.145c-0.465,0.783 -1.405,1.615 -2.249,1.775c-1.674,0.317 -2.739,-1.759 -1.81,-3.389c2.668,-4.682 5.375,-9.342 8.071,-14.009c1.044,-1.807 2.088,-3.614 3.152,-5.409c0.576,-0.971 1.548,-1.365 2.496,-0.912c0.729,0.348 1.224,1.182 1.778,1.753" style="fill:#fff;fill-rule:nonzero;"></path>
    <path d="M132.694,37.026c-0.256,0.327 -0.611,1.153 -1.237,1.522c-6.373,3.754 -12.784,7.442 -19.198,11.125c-1.272,0.73 -2.59,0.408 -3.188,-0.672c-0.625,-1.128 -0.256,-2.379 0.986,-3.099c6.315,-3.661 12.632,-7.316 18.964,-10.946c1.809,-1.038 3.639,-0.205 3.673,2.07" style="fill:#fff;fill-rule:nonzero;"></path>
    <path d="M128.393,68.83c3.552,-0 7.105,-0.008 10.657,0.003c1.891,0.007 2.829,0.75 2.817,2.182c-0.012,1.416 -1.006,2.199 -2.84,2.2c-7.057,0.006 -14.113,-0.002 -21.169,0.006c-1.19,0.002 -2.264,-0.203 -2.755,-1.453c-0.593,-1.511 0.417,-2.9 2.195,-2.92c3.698,-0.043 7.397,-0.013 11.095,-0.013l-0,-0.005Z" style="fill:#fff;fill-rule:nonzero;"></path>
    <path d="M107.668,130.795c-0.52,0.55 -0.997,1.401 -1.715,1.731c-1.114,0.512 -2.069,-0.077 -2.679,-1.129c-1.366,-2.357 -2.731,-4.714 -4.09,-7.074c-2.258,-3.92 -4.515,-7.84 -6.765,-11.764c-0.888,-1.55 -0.73,-2.744 0.428,-3.446c1.231,-0.747 2.411,-0.337 3.341,1.263c3.593,6.182 7.166,12.376 10.73,18.574c0.262,0.453 0.402,0.977 0.75,1.845" style="fill:#fff;fill-rule:nonzero;"></path>
    <path d="M13.37,73.082c-3.553,-0 -7.106,0.008 -10.659,-0.004c-1.756,-0.005 -2.707,-0.779 -2.711,-2.15c-0.003,-1.351 0.996,-2.224 2.693,-2.227c7.203,-0.015 14.407,-0.011 21.611,0.01c1.642,0.005 2.686,0.952 2.648,2.278c-0.037,1.293 -1.002,2.087 -2.631,2.094c-3.65,0.016 -7.301,0.005 -10.951,0.005l0,-0.006Z" style="fill:#fff;fill-rule:nonzero;"></path>
    <path d="M110.565,91.664c0.864,0.344 1.384,0.481 1.834,0.74c6.284,3.611 12.56,7.234 18.833,10.864c1.31,0.758 1.759,2.046 1.152,3.178c-0.589,1.099 -1.984,1.405 -3.331,0.631c-6.367,-3.661 -12.715,-7.353 -19.079,-11.02c-1.046,-0.602 -1.487,-1.553 -1.073,-2.575c0.295,-0.727 1.113,-1.243 1.664,-1.818" style="fill:#fff;fill-rule:nonzero;"></path>
  </g>
</svg>
